<?xml version="1.0" encoding="UTF-8" standalone="no"?>
<svg
   width="331.48047pt"
   height="51.832031pt"
   viewBox="0 0 331.48047 51.832033"
   version="1.1"
   id="svg56"
   sodipodi:docname="itadindo-notag.svg"
   inkscape:version="1.4.2 (ebf0e940d0, 2025-05-08)"
   xmlns:inkscape="http://www.inkscape.org/namespaces/inkscape"
   xmlns:sodipodi="http://sodipodi.sourceforge.net/DTD/sodipodi-0.dtd"
   xmlns="http://www.w3.org/2000/svg"
   xmlns:svg="http://www.w3.org/2000/svg">
  <defs
     id="defs56" />
  <sodipodi:namedview
     id="namedview56"
     pagecolor="#ffffff"
     bordercolor="#000000"
     borderopacity="0.25"
     inkscape:showpageshadow="2"
     inkscape:pageopacity="0.0"
     inkscape:pagecheckerboard="0"
     inkscape:deskcolor="#d1d1d1"
     inkscape:document-units="pt"
     inkscape:zoom="0.65389836"
     inkscape:cx="224.04094"
     inkscape:cy="50.466559"
     inkscape:window-width="1536"
     inkscape:window-height="749"
     inkscape:window-x="0"
     inkscape:window-y="0"
     inkscape:window-maximized="1"
     inkscape:current-layer="svg56" />
  <path
     fill-rule="nonzero"
     fill="#f26611"
     fill-opacity="1"
     d="M 0,51.832028 V -2e-6 h 14.94922 v 6.75781 h -6.3125 v 38.32032 h 6.3125 v 6.7539 z m 0,0"
     id="path47" />
  <path
     fill-rule="nonzero"
     fill="#1d1d1b"
     fill-opacity="1"
     d="m 24.80859,45.089848 h 9.02344 V 6.324218 h -9.02344 z m 0,0"
     id="path48" />
  <path
     fill-rule="nonzero"
     fill="#1d1d1b"
     fill-opacity="1"
     d="M 73.48437,6.328128 H 39.70312 v 7.30859 h 12.40625 v 31.45313 h 8.96875 v -31.45313 h 12.40625 z m 0,0"
     id="path49" />
  <path
     fill-rule="nonzero"
     fill="#1d1d1b"
     fill-opacity="1"
     d="M 87.85547,29.972658 94,15.195308 l 6.14453,14.77735 z M 89.59766,6.324218 72.375,45.089848 h 9.19141 l 3.45703,-8.30469 h 17.95312 l 3.45703,8.30469 h 9.41016 L 98.45703,6.324218 Z m 0,0"
     id="path50" />
  <path
     fill-rule="nonzero"
     fill="#1d1d1b"
     fill-opacity="1"
     d="m 149.32031,32.105468 c -1.05078,1.82422 -2.52734,3.23047 -4.42969,4.20703 -1.90234,0.98047 -4.14453,1.46875 -6.72656,1.46875 h -8.14062 v -24.14453 h 8.14062 c 2.58203,0 4.82422,0.48828 6.72656,1.46484 1.90235,0.98047 3.37891,2.375 4.42969,4.1836 1.05078,1.80859 1.57813,3.94922 1.57813,6.42187 0,2.4375 -0.52735,4.57032 -1.57813,6.39844 m 0.41797,-23.37109 c -3.21484,-1.60547 -6.92578,-2.40625 -11.13281,-2.40625 h -17.60938 v 38.76172 h 17.60938 c 4.20703,0 7.91797,-0.80079 11.13281,-2.41016 3.21094,-1.60547 5.71875,-3.85547 7.53125,-6.75391 1.80469,-2.89843 2.71094,-6.30468 2.71094,-10.21875 0,-3.91406 -0.90625,-7.3164 -2.71094,-10.21484 -1.8125,-2.89844 -4.32031,-5.15234 -7.53125,-6.75781"
     id="path51" />
  <path
     fill-rule="nonzero"
     fill="#1d1d1b"
     fill-opacity="1"
     d="m 167.84375,45.089848 h 9.02734 V 6.324218 h -9.02734 z m 0,0"
     id="path52" />
  <path
     fill-rule="nonzero"
     fill="#1d1d1b"
     fill-opacity="1"
     d="M 213.80469,29.843748 194.53516,6.324218 h -7.42188 v 38.76563 h 8.86328 v -23.51563 l 19.26953,23.51563 h 7.41797 V 6.324218 h -8.85937 z m 0,0"
     id="path53" />
  <path
     fill-rule="nonzero"
     fill="#1d1d1b"
     fill-opacity="1"
     d="m 232.96484,45.089848 h 9.02735 v -14.1211 h 17.88672 v -7.19922 h -17.88672 v -10.24218 h 20.26953 v -7.20313 h -29.29688 z m 0,0"
     id="path54" />
  <path
     fill-rule="nonzero"
     fill="#1d1d1b"
     fill-opacity="1"
     d="m 299.05859,30.718748 c -0.60937,1.4961 -1.46875,2.8086 -2.57422,3.9336 -1.10937,1.125 -2.39062,1.99218 -3.85156,2.60156 -1.45703,0.60937 -3.05469,0.91406 -4.78906,0.91406 -1.73438,0 -3.33984,-0.30469 -4.81641,-0.91406 -1.47656,-0.60938 -2.76172,-1.47656 -3.85156,-2.60156 -1.08594,-1.125 -1.9375,-2.4375 -2.54687,-3.9336 -0.60547,-1.49219 -0.91407,-3.16406 -0.91407,-5.01172 0,-1.84375 0.3086,-3.51562 0.91407,-5.01172 0.60937,-1.49609 1.46093,-2.80468 2.54687,-3.92968 1.08984,-1.125 2.375,-1.99219 3.85156,-2.60547 1.47657,-0.60547 3.08203,-0.91406 4.81641,-0.91406 1.73437,0 3.33203,0.30859 4.78906,0.91406 1.46094,0.61328 2.74219,1.48047 3.85156,2.60547 1.10547,1.125 1.96485,2.43359 2.57422,3.92968 0.60938,1.4961 0.91407,3.16797 0.91407,5.01172 0,1.84766 -0.30469,3.51953 -0.91407,5.01172 m 8.41797,-13.03906 c -1.05469,-2.4375 -2.53906,-4.5625 -4.45703,-6.36719 -1.92187,-1.8125 -4.16406,-3.20312 -6.73047,-4.18359 -2.5664,-0.97656 -5.3789,-1.46875 -8.44531,-1.46875 -3.0625,0 -5.87891,0.5 -8.44531,1.49609 -2.56641,0.9961 -4.8086,2.40235 -6.72657,4.21094 -1.92187,1.80859 -3.40625,3.92187 -4.46093,6.33984 -1.05078,2.41797 -1.57813,5.08594 -1.57813,8 0,2.87891 0.52735,5.53907 1.57813,7.97657 1.05468,2.43359 2.53906,4.55859 4.46093,6.36718 1.91797,1.8086 4.17188,3.21094 6.75391,4.20703 2.58594,0.9961 5.41016,1.4961 8.47266,1.4961 3.02734,0 5.82422,-0.48828 8.39062,-1.46875 2.56641,-0.97656 4.8086,-2.3711 6.73047,-4.17969 1.91797,-1.80859 3.40234,-3.94141 4.45703,-6.39453 1.05078,-2.45703 1.57813,-5.125 1.57813,-8.00391 0,-2.91406 -0.52735,-5.58984 -1.57813,-8.02734"
     id="path55" />
  <path
     fill-rule="nonzero"
     fill="#f26611"
     fill-opacity="1"
     d="m 331.48047,51.832028 h -15.00781 v -6.7539 h 6.36718 V 6.757808 h -6.36718 V -2e-6 h 15.00781 z m 0,0"
     id="path56" />
</svg>
