<?xml version="1.0" encoding="UTF-8" standalone="no"?>
<svg
   width="331.48047pt"
   height="98.441406pt"
   viewBox="0 0 331.48047 98.44141"
   version="1.1"
   id="svg56"
   sodipodi:docname="itadindo.svg"
   inkscape:version="1.4.2 (ebf0e940d0, 2025-05-08)"
   xmlns:inkscape="http://www.inkscape.org/namespaces/inkscape"
   xmlns:sodipodi="http://sodipodi.sourceforge.net/DTD/sodipodi-0.dtd"
   xmlns="http://www.w3.org/2000/svg"
   xmlns:svg="http://www.w3.org/2000/svg">
  <defs
     id="defs56" />
  <sodipodi:namedview
     id="namedview56"
     pagecolor="#ffffff"
     bordercolor="#000000"
     borderopacity="0.25"
     inkscape:showpageshadow="2"
     inkscape:pageopacity="0.0"
     inkscape:pagecheckerboard="0"
     inkscape:deskcolor="#d1d1d1"
     inkscape:document-units="pt"
     inkscape:zoom="1.064624"
     inkscape:cx="224.96205"
     inkscape:cy="50.722131"
     inkscape:window-width="1536"
     inkscape:window-height="749"
     inkscape:window-x="0"
     inkscape:window-y="0"
     inkscape:window-maximized="1"
     inkscape:current-layer="svg56" />
  <path
     fill-rule="nonzero"
     fill="#1d1d1b"
     fill-opacity="1"
     d="m 91.62891,78.980468 c -0.1211,0.10156 -0.34375,0.23828 -0.66797,0.40625 -0.32813,0.17188 -0.72657,0.32422 -1.19922,0.45313 -0.47266,0.13281 -0.9961,0.1914 -1.56641,0.17968 -0.875,-0.0156 -1.65625,-0.17578 -2.34375,-0.47265 -0.6914,-0.29688 -1.27344,-0.69922 -1.75,-1.21094 -0.47656,-0.51563 -0.83984,-1.10156 -1.09375,-1.76563 -0.25,-0.66406 -0.375,-1.37109 -0.375,-2.125 0,-0.84375 0.12891,-1.61718 0.38281,-2.32031 0.25782,-0.70312 0.625,-1.3125 1.10157,-1.82422 0.47656,-0.51172 1.04687,-0.91015 1.71093,-1.1914 0.66407,-0.28125 1.39454,-0.42188 2.19922,-0.42188 0.7461,0 1.40235,0.10156 1.97657,0.30078 0.57031,0.20313 1.03906,0.41797 1.39843,0.64844 l -0.85937,2.06641 c -0.25,-0.19141 -0.58203,-0.39063 -1,-0.59766 -0.41797,-0.20312 -0.89844,-0.30859 -1.44141,-0.30859 -0.42187,0 -0.82422,0.0898 -1.21094,0.26562 -0.38671,0.17578 -0.73046,0.42578 -1.02734,0.7461 -0.29687,0.32031 -0.52734,0.69531 -0.69922,1.12109 -0.17187,0.42578 -0.25781,0.89453 -0.25781,1.39453 0,0.53125 0.0781,1.01953 0.23437,1.46484 0.15625,0.4375 0.37891,0.82032 0.67188,1.13672 0.29297,0.31641 0.64062,0.5586 1.04687,0.73047 0.40625,0.17188 0.86719,0.25781 1.37891,0.25781 0.59375,0 1.10156,-0.0977 1.52344,-0.28906 0.42187,-0.1914 0.74219,-0.39062 0.96484,-0.60156 z m 0,0"
     id="path1" />
  <path
     fill-rule="nonzero"
     fill="#1d1d1b"
     fill-opacity="1"
     d="m 95.09766,74.371098 c 0,0.49218 0.0859,0.94921 0.26171,1.3789 0.17579,0.42578 0.42188,0.80469 0.73829,1.12891 0.3164,0.32812 0.68359,0.58203 1.10156,0.76172 0.41797,0.17968 0.87109,0.26953 1.36328,0.26953 0.47266,0 0.91406,-0.0898 1.32031,-0.26953 0.40625,-0.17969 0.76172,-0.4336 1.0625,-0.76172 0.30078,-0.32422 0.53516,-0.70313 0.70703,-1.12891 0.17188,-0.42969 0.25782,-0.88672 0.25782,-1.3789 0,-0.50391 -0.0898,-0.97266 -0.26563,-1.40235 -0.17578,-0.43359 -0.41797,-0.8125 -0.72266,-1.13672 -0.30468,-0.32812 -0.66796,-0.58203 -1.07812,-0.76172 -0.41016,-0.17968 -0.85938,-0.27343 -1.33984,-0.27343 -0.48438,0 -0.92969,0.0937 -1.34375,0.27343 -0.41016,0.17969 -0.77344,0.4336 -1.08594,0.76172 -0.3086,0.32422 -0.55078,0.70313 -0.72266,1.13672 -0.16797,0.42969 -0.2539,0.89844 -0.2539,1.40235 m -2.26172,0 c 0,-0.76563 0.14453,-1.48829 0.4375,-2.17188 0.28906,-0.68359 0.69531,-1.28906 1.21093,-1.81641 0.51954,-0.52734 1.1211,-0.9414 1.80079,-1.24218 0.68359,-0.30078 1.41796,-0.45313 2.20312,-0.45313 0.77344,0 1.5,0.15235 2.18359,0.45313 0.6836,0.30078 1.28907,0.71484 1.81641,1.24218 0.52734,0.52735 0.94141,1.13282 1.23828,1.81641 0.29688,0.68359 0.44141,1.40625 0.44141,2.17188 0,0.78125 -0.14453,1.51562 -0.44141,2.19921 -0.29687,0.6836 -0.71094,1.28516 -1.23828,1.80079 -0.52734,0.51953 -1.13281,0.92187 -1.81641,1.21484 -0.68359,0.28906 -1.41015,0.43359 -2.18359,0.43359 -0.78516,0 -1.51953,-0.14453 -2.20312,-0.43359 -0.67969,-0.29297 -1.28125,-0.69531 -1.80079,-1.21484 -0.51562,-0.51563 -0.92187,-1.11719 -1.21093,-1.80079 -0.29297,-0.68359 -0.4375,-1.41796 -0.4375,-2.19921"
     id="path2" />
  <path
     fill-rule="nonzero"
     fill="#1d1d1b"
     fill-opacity="1"
     d="m 115.98437,80.351558 -8.40625,-7.59375 0.64454,0.36329 0.0469,6.78125 h -2.21484 v -11.53125 h 0.0898 l 8.23047,7.5664 -0.48438,-0.21094 -0.043,-6.91796 h 2.19921 v 11.54296 z m 0,0"
     id="path3" />
  <path
     fill-rule="nonzero"
     fill="#1d1d1b"
     fill-opacity="1"
     d="m 120.28125,68.808598 3.24219,7.98828 -1.26953,-0.25782 2.9414,-7.73046 h 2.59375 l -5.0664,11.60546 -5.0625,-11.60546 z m 0,0"
     id="path4" />
  <path
     fill-rule="nonzero"
     fill="#1d1d1b"
     fill-opacity="1"
     d="m 129.39844,68.808598 h 7.5664 v 2.10937 h -5.3789 v 2.36719 h 4.76172 v 2.10937 h -4.76172 v 2.39453 h 5.58984 v 2.11329 h -7.77734 z m 0,0"
     id="path5" />
  <path
     fill-rule="nonzero"
     fill="#1d1d1b"
     fill-opacity="1"
     d="m 148.13281,78.785158 c -0.1289,0.14062 -0.33594,0.28515 -0.61719,0.42969 -0.28125,0.14453 -0.60546,0.28125 -0.97265,0.39843 -0.36719,0.1211 -0.73828,0.22266 -1.1211,0.29688 -0.38281,0.0742 -0.74609,0.10937 -1.08593,0.10937 -0.90235,0 -1.71875,-0.1289 -2.44141,-0.39843 -0.72266,-0.26563 -1.33984,-0.63672 -1.85547,-1.11329 -0.51172,-0.47656 -0.90234,-1.04296 -1.17187,-1.69531 -0.27344,-0.65625 -0.41016,-1.36719 -0.41016,-2.14062 0,-1.01563 0.15234,-1.89844 0.46094,-2.64453 0.30469,-0.75 0.72265,-1.375 1.25,-1.8711 0.52734,-0.49609 1.13672,-0.86328 1.82422,-1.10547 0.6875,-0.24218 1.41015,-0.36328 2.16406,-0.36328 0.71094,0 1.36719,0.0781 1.95703,0.23438 0.59375,0.15625 1.09766,0.34765 1.50781,0.58203 l -0.70703,2.03125 c -0.17969,-0.0977 -0.42187,-0.19922 -0.72265,-0.30078 -0.30469,-0.0977 -0.60938,-0.1836 -0.92188,-0.25 -0.30859,-0.0625 -0.58594,-0.0937 -0.82812,-0.0937 -0.60157,0 -1.13672,0.0742 -1.59766,0.22265 -0.46094,0.15235 -0.85156,0.37891 -1.16797,0.67969 -0.31641,0.30078 -0.55469,0.67578 -0.71484,1.12109 -0.16016,0.44922 -0.24219,0.96875 -0.24219,1.5625 0,0.52344 0.0898,0.99219 0.27344,1.41016 0.17968,0.41406 0.43359,0.76953 0.75781,1.05859 0.32812,0.29297 0.71484,0.51563 1.16406,0.66407 0.44531,0.15234 0.94141,0.22656 1.48047,0.22656 0.3125,0 0.60156,-0.0234 0.86328,-0.0664 0.25781,-0.0469 0.48047,-0.12109 0.66016,-0.21875 v -1.33984 h -1.91406 v -2.11328 h 4.1289 z m 0,0"
     id="path6" />
  <path
     fill-rule="nonzero"
     fill="#1d1d1b"
     fill-opacity="1"
     d="m 160.25391,80.351558 -8.41016,-7.59375 0.64844,0.36329 0.043,6.78125 h -2.21485 v -11.53125 h 0.0899 l 8.23046,7.5664 -0.48437,-0.21094 -0.043,-6.91796 h 2.19922 v 11.54296 z m 0,0"
     id="path7" />
  <path
     fill-rule="nonzero"
     fill="#1d1d1b"
     fill-opacity="1"
     d="m 164.45703,74.371098 c 0,0.49218 0.0898,0.94921 0.26563,1.3789 0.17578,0.42578 0.42187,0.80469 0.73828,1.12891 0.3164,0.32812 0.68359,0.58203 1.10156,0.76172 0.41406,0.17968 0.87109,0.26953 1.36328,0.26953 0.46875,0 0.91016,-0.0898 1.31641,-0.26953 0.40625,-0.17969 0.76172,-0.4336 1.0625,-0.76172 0.30078,-0.32422 0.53906,-0.70313 0.71093,-1.12891 0.16797,-0.42969 0.25391,-0.88672 0.25391,-1.3789 0,-0.50391 -0.0859,-0.97266 -0.26172,-1.40235 -0.17578,-0.43359 -0.41797,-0.8125 -0.72656,-1.13672 -0.30469,-0.32812 -0.66406,-0.58203 -1.07813,-0.76172 -0.41015,-0.17968 -0.85546,-0.27343 -1.33984,-0.27343 -0.48047,0 -0.92969,0.0937 -1.33984,0.27343 -0.41407,0.17969 -0.77344,0.4336 -1.08594,0.76172 -0.3125,0.32422 -0.55078,0.70313 -0.72266,1.13672 -0.17187,0.42969 -0.25781,0.89844 -0.25781,1.40235 m -2.26172,0 c 0,-0.76563 0.14844,-1.48829 0.4375,-2.17188 0.29297,-0.68359 0.69531,-1.28906 1.21485,-1.81641 0.51562,-0.52734 1.11718,-0.9414 1.80078,-1.24218 0.68359,-0.30078 1.41797,-0.45313 2.19922,-0.45313 0.77343,0 1.5039,0.15235 2.1875,0.45313 0.68359,0.30078 1.28906,0.71484 1.8164,1.24218 0.52735,0.52735 0.9375,1.13282 1.23438,1.81641 0.29687,0.68359 0.44531,1.40625 0.44531,2.17188 0,0.78125 -0.14844,1.51562 -0.44531,2.19921 -0.29688,0.6836 -0.70703,1.28516 -1.23438,1.80079 -0.52734,0.51953 -1.13281,0.92187 -1.8164,1.21484 -0.6836,0.28906 -1.41407,0.43359 -2.1875,0.43359 -0.78125,0 -1.51563,-0.14453 -2.19922,-0.43359 -0.6836,-0.29297 -1.28516,-0.69531 -1.80078,-1.21484 -0.51954,-0.51563 -0.92188,-1.11719 -1.21485,-1.80079 -0.28906,-0.68359 -0.4375,-1.41796 -0.4375,-2.19921"
     id="path8" />
  <path
     fill-rule="nonzero"
     fill="#1d1d1b"
     fill-opacity="1"
     d="m 180.01172,68.808598 h 2.1875 v 11.09375 h -2.1875 z m 0,0"
     id="path9" />
  <path
     fill-rule="nonzero"
     fill="#1d1d1b"
     fill-opacity="1"
     d="m 184.00781,68.808598 h 7.47266 v 2.10937 h -2.69922 v 8.98438 h -2.18359 v -8.98438 h -2.58985 z m 0,0"
     id="path10" />
  <path
     fill-rule="nonzero"
     fill="#1d1d1b"
     fill-opacity="1"
     d="m 194.55469,75.894528 h 3.33203 l 0.76953,1.83594 h -4.77734 z m -3.42188,4.00782 5.00391,-11.53125 h 0.12109 l 5.00391,11.53125 h -2.53125 l -3.19531,-8.10938 1.58203,-1.08594 -3.82813,9.19532 z m 0,0"
     id="path11" />
  <path
     fill-rule="nonzero"
     fill="#1d1d1b"
     fill-opacity="1"
     d="m 202.57422,68.808598 h 2.1875 v 8.98046 h 5.21094 v 2.11329 h -7.39844 z m 0,0"
     id="path12" />
  <path
     fill-rule="nonzero"
     fill="#1d1d1b"
     fill-opacity="1"
     d="m 211.93359,68.808598 h 2.1875 v 11.09375 h -2.1875 z m 0,0"
     id="path13" />
  <path
     fill-rule="nonzero"
     fill="#1d1d1b"
     fill-opacity="1"
     d="m 218.85156,75.894528 h 3.33203 l 0.76953,1.83594 h -4.78125 z m -3.42187,4.00782 5.0039,-11.53125 h 0.1211 l 5.0039,11.53125 h -2.53125 l -3.19531,-8.10938 1.58203,-1.08594 -3.82812,9.19532 z m 0,0"
     id="path14" />
  <path
     fill-rule="nonzero"
     fill="#1d1d1b"
     fill-opacity="1"
     d="m 236.80078,80.351558 -8.40625,-7.59375 0.64453,0.36329 0.0469,6.78125 h -2.21485 v -11.53125 h 0.0899 l 8.23047,7.5664 -0.48438,-0.21094 -0.043,-6.91796 h 2.19922 v 11.54296 z m 0,0"
     id="path15" />
  <path
     fill-rule="nonzero"
     fill="#1d1d1b"
     fill-opacity="1"
     d="m 241.00781,74.371098 c 0,0.49218 0.0899,0.94921 0.26563,1.3789 0.17187,0.42578 0.42187,0.80469 0.73828,1.12891 0.3125,0.32812 0.68359,0.58203 1.09765,0.76172 0.41797,0.17968 0.8711,0.26953 1.36719,0.26953 0.46875,0 0.91016,-0.0898 1.31641,-0.26953 0.40625,-0.17969 0.76172,-0.4336 1.0625,-0.76172 0.30078,-0.32422 0.53906,-0.70313 0.70703,-1.12891 0.17187,-0.42969 0.25781,-0.88672 0.25781,-1.3789 0,-0.50391 -0.0859,-0.97266 -0.26172,-1.40235 -0.17968,-0.43359 -0.41797,-0.8125 -0.72656,-1.13672 -0.30469,-0.32812 -0.66406,-0.58203 -1.07812,-0.76172 -0.41016,-0.17968 -0.85547,-0.27343 -1.33985,-0.27343 -0.48047,0 -0.92969,0.0937 -1.34375,0.27343 -0.41015,0.17969 -0.77344,0.4336 -1.08203,0.76172 -0.3125,0.32422 -0.55469,0.70313 -0.72266,1.13672 -0.17187,0.42969 -0.25781,0.89844 -0.25781,1.40235 m -2.26172,0 c 0,-0.76563 0.14844,-1.48829 0.4375,-2.17188 0.29297,-0.68359 0.69532,-1.28906 1.21485,-1.81641 0.51562,-0.52734 1.11718,-0.9414 1.80078,-1.24218 0.68359,-0.30078 1.41406,-0.45313 2.19922,-0.45313 0.77343,0 1.5039,0.15235 2.18359,0.45313 0.6875,0.30078 1.28906,0.71484 1.82031,1.24218 0.52735,0.52735 0.9375,1.13282 1.23438,1.81641 0.29687,0.68359 0.44531,1.40625 0.44531,2.17188 0,0.78125 -0.14844,1.51562 -0.44531,2.19921 -0.29688,0.6836 -0.70703,1.28516 -1.23438,1.80079 -0.53125,0.51953 -1.13281,0.92187 -1.82031,1.21484 -0.67969,0.28906 -1.41016,0.43359 -2.18359,0.43359 -0.78516,0 -1.51563,-0.14453 -2.19922,-0.43359 -0.6836,-0.29297 -1.28516,-0.69531 -1.80078,-1.21484 -0.51953,-0.51563 -0.92188,-1.11719 -1.21485,-1.80079 -0.28906,-0.68359 -0.4375,-1.41796 -0.4375,-2.19921"
     id="path16" />
  <path
     fill-rule="nonzero"
     fill="#1d1d1b"
     fill-opacity="1"
     d="m 31.65625,89.578128 c -0.42188,-0.23047 -0.85156,-0.42188 -1.28516,-0.57422 -0.4375,-0.15235 -0.84765,-0.22656 -1.23047,-0.22656 -0.47265,0 -0.84375,0.0977 -1.11328,0.28515 -0.27343,0.19531 -0.40625,0.48047 -0.40625,0.86328 0,0.25782 0.10157,0.49219 0.3086,0.69922 0.20312,0.20703 0.46875,0.39063 0.79687,0.55078 0.32813,0.16016 0.66406,0.30469 1.01953,0.4375 0.32032,0.11719 0.64063,0.26172 0.95703,0.42969 0.31641,0.16406 0.59766,0.37109 0.85157,0.61719 0.25,0.24609 0.44922,0.55078 0.60156,0.91797 0.14844,0.36718 0.22656,0.8164 0.22656,1.35156 0,0.55859 -0.14844,1.08203 -0.4375,1.56641 -0.29297,0.48046 -0.71875,0.87109 -1.28125,1.16796 -0.5625,0.29688 -1.25781,0.44141 -2.08203,0.44141 -0.42187,0 -0.85156,-0.0391 -1.28516,-0.125 -0.4375,-0.0859 -0.86718,-0.21484 -1.28906,-0.39062 -0.42187,-0.17579 -0.83203,-0.40235 -1.22265,-0.67188 L 25.75,95.214848 c 0.26172,0.1914 0.54687,0.35937 0.85156,0.5039 0.30469,0.14453 0.61719,0.25781 0.92578,0.33985 0.3125,0.082 0.59766,0.12109 0.85938,0.12109 0.26172,0 0.52734,-0.0391 0.79297,-0.11328 0.26562,-0.0781 0.48828,-0.20313 0.66406,-0.38672 0.17578,-0.17969 0.26172,-0.42969 0.26172,-0.75 0,-0.22266 -0.0742,-0.42188 -0.21875,-0.60547 -0.14453,-0.17969 -0.33985,-0.34766 -0.58594,-0.49609 -0.24609,-0.15235 -0.51562,-0.28125 -0.80859,-0.39453 -0.33985,-0.12891 -0.69141,-0.28125 -1.05469,-0.44922 -0.35938,-0.17188 -0.69922,-0.37891 -1.01563,-0.625 -0.3164,-0.2461 -0.57421,-0.55469 -0.76953,-0.92188 -0.19531,-0.36719 -0.29297,-0.8164 -0.29297,-1.34765 0,-0.64454 0.14063,-1.19922 0.42969,-1.67188 0.28516,-0.47266 0.6875,-0.84766 1.21094,-1.125 0.52344,-0.27734 1.125,-0.42969 1.80859,-0.45703 0.89453,0 1.6211,0.10156 2.17969,0.3125 0.55859,0.21094 1.05859,0.46484 1.5,0.75391 z m 0,0"
     id="path17" />
  <path
     fill-rule="nonzero"
     fill="#1d1d1b"
     fill-opacity="1"
     d="m 36.17969,93.886718 c 0,0.35156 0.10547,0.6875 0.3164,1.01172 0.21094,0.32031 0.49219,0.58203 0.83594,0.78516 0.34766,0.19921 0.72656,0.30078 1.13672,0.30078 0.45312,0 0.85547,-0.10157 1.20703,-0.30078 0.35156,-0.20313 0.63281,-0.46485 0.83594,-0.78516 0.20703,-0.32422 0.30859,-0.66016 0.30859,-1.01172 v -6.99219 h 2.15625 v 7.03907 c 0,0.8125 -0.19922,1.53515 -0.60156,2.16015 -0.40234,0.62891 -0.94531,1.1211 -1.62891,1.48047 -0.68359,0.35547 -1.4414,0.53516 -2.27734,0.53516 -0.82031,0 -1.57422,-0.17969 -2.25,-0.53516 -0.67969,-0.35937 -1.21875,-0.85156 -1.62109,-1.48047 -0.40235,-0.625 -0.60547,-1.34765 -0.60547,-2.16015 v -7.03907 h 2.1875 z m 0,0"
     id="path18" />
  <path
     fill-rule="nonzero"
     fill="#1d1d1b"
     fill-opacity="1"
     d="M 45.3125,86.894528 H 47.5 v 8.98047 h 5.21484 v 2.11328 H 45.3125 Z m 0,0"
     id="path19" />
  <path
     fill-rule="nonzero"
     fill="#1d1d1b"
     fill-opacity="1"
     d="m 54.67187,86.894528 h 2.1875 v 8.98047 h 5.21485 v 2.11328 h -7.40235 z m 0,0"
     id="path20" />
  <path
     fill-rule="nonzero"
     fill="#1d1d1b"
     fill-opacity="1"
     d="m 66.20312,93.976558 h 3.33204 l 0.76953,1.83985 h -4.78125 z m -3.42187,4.01172 5.00391,-11.53125 h 0.12109 l 5.00391,11.53125 h -2.53125 l -3.19532,-8.10937 1.58203,-1.08594 -3.82812,9.19531 z m 0,0"
     id="path21" />
  <path
     fill-rule="nonzero"
     fill="#1d1d1b"
     fill-opacity="1"
     d="m 81.00391,95.878908 h 1.29687 c 0.55078,0 1.05469,-0.0742 1.50781,-0.22266 0.45313,-0.14453 0.83985,-0.35547 1.16797,-0.63672 0.32422,-0.28125 0.57813,-0.63672 0.75391,-1.0664 0.17578,-0.42578 0.26172,-0.91407 0.26172,-1.46875 0,-0.72266 -0.11719,-1.3125 -0.35157,-1.76953 -0.23828,-0.45704 -0.53125,-0.8125 -0.875,-1.0625 -0.34765,-0.25 -0.70312,-0.42188 -1.0625,-0.51954 -0.36328,-0.0977 -0.66796,-0.14453 -0.92187,-0.14453 h -1.77734 z m -2.1875,2.10937 v -11.09375 h 3.3164 c 1.11719,0 2.06641,0.16797 2.85156,0.4961 0.78125,0.33203 1.41407,0.77343 1.89063,1.32812 0.47656,0.55078 0.82422,1.17188 1.04687,1.85156 0.22266,0.6836 0.33204,1.3711 0.33204,2.06641 0,0.82422 -0.14844,1.56641 -0.44532,2.22266 -0.29687,0.66015 -0.69922,1.22265 -1.21093,1.6875 -0.51563,0.46875 -1.10938,0.82422 -1.78125,1.07031 -0.67188,0.24609 -1.38672,0.37109 -2.14063,0.37109 z m 0,0"
     id="path22" />
  <path
     fill-rule="nonzero"
     fill="#1d1d1b"
     fill-opacity="1"
     d="m 90.13672,86.894528 h 2.1875 v 11.09375 h -2.1875 z m 0,0"
     id="path23" />
  <path
     fill-rule="nonzero"
     fill="#1d1d1b"
     fill-opacity="1"
     d="m 97.07031,95.878908 h 1.29688 c 0.55078,0 1.05468,-0.0742 1.50781,-0.22266 0.45312,-0.14453 0.83984,-0.35547 1.16797,-0.63672 0.32422,-0.28125 0.57812,-0.63672 0.7539,-1.0664 0.17579,-0.42578 0.26172,-0.91407 0.26172,-1.46875 0,-0.72266 -0.11718,-1.3125 -0.35156,-1.76953 -0.23828,-0.45704 -0.53125,-0.8125 -0.875,-1.0625 -0.34766,-0.25 -0.70312,-0.42188 -1.0625,-0.51954 -0.36328,-0.0977 -0.66797,-0.14453 -0.92187,-0.14453 h -1.77735 z m -2.1875,2.10937 v -11.09375 h 3.31641 c 1.11719,0 2.0664,0.16797 2.85156,0.4961 0.78125,0.33203 1.41406,0.77343 1.89063,1.32812 0.47656,0.55078 0.82421,1.17188 1.04687,1.85156 0.22266,0.6836 0.33203,1.3711 0.33203,2.06641 0,0.82422 -0.14844,1.56641 -0.44531,2.22266 -0.29688,0.66015 -0.69922,1.22265 -1.21094,1.6875 -0.51562,0.46875 -1.10937,0.82422 -1.78125,1.07031 -0.67187,0.24609 -1.38672,0.37109 -2.14062,0.37109 z m 0,0"
     id="path24" />
  <path
     fill-rule="nonzero"
     fill="#1d1d1b"
     fill-opacity="1"
     d="m 107.62109,93.976558 h 3.33203 l 0.76954,1.83985 h -4.78125 z m -3.42187,4.01172 5.0039,-11.53125 h 0.1211 l 5.0039,11.53125 h -2.53125 l -3.19531,-8.10937 1.58203,-1.08594 -3.82812,9.19531 z m 0,0"
     id="path25" />
  <path
     fill-rule="nonzero"
     fill="#1d1d1b"
     fill-opacity="1"
     d="m 113.98047,86.894528 h 7.47656 v 2.10938 h -2.69922 v 8.98437 h -2.18359 v -8.98437 h -2.59375 z m 0,0"
     id="path26" />
  <path
     fill-rule="nonzero"
     fill="#1d1d1b"
     fill-opacity="1"
     d="m 122.51172,86.894528 h 7.47656 v 2.10938 h -2.69922 v 8.98437 h -2.18359 v -8.98437 h -2.59375 z m 0,0"
     id="path27" />
  <path
     fill-rule="nonzero"
     fill="#1d1d1b"
     fill-opacity="1"
     d="m 131.79687,86.894528 h 2.1836 v 11.09375 h -2.1836 z m 0,0"
     id="path28" />
  <path
     fill-rule="nonzero"
     fill="#1d1d1b"
     fill-opacity="1"
     d="m 144.86328,97.070308 c -0.12109,0.0977 -0.34375,0.23438 -0.66797,0.40235 -0.32812,0.17187 -0.72656,0.32422 -1.19922,0.45312 -0.47265,0.13282 -0.99609,0.19141 -1.5664,0.17969 -0.875,-0.0156 -1.65625,-0.17578 -2.34766,-0.47266 -0.6875,-0.29687 -1.26953,-0.69921 -1.74609,-1.21093 -0.47657,-0.51563 -0.84375,-1.10157 -1.09375,-1.76563 -0.25,-0.66406 -0.375,-1.37109 -0.375,-2.125 0,-0.84375 0.125,-1.61719 0.38281,-2.32031 0.25781,-0.70313 0.62109,-1.3125 1.10156,-1.82422 0.47656,-0.51172 1.04688,-0.91016 1.71094,-1.19141 0.66406,-0.28125 1.39453,-0.42187 2.19922,-0.42187 0.74219,0 1.40234,0.10156 1.97656,0.30078 0.57031,0.20313 1.03906,0.41797 1.39844,0.64844 l -0.85938,2.0664 c -0.25,-0.1914 -0.58203,-0.39062 -1,-0.59765 -0.41797,-0.20313 -0.89843,-0.3086 -1.4414,-0.3086 -0.42188,0 -0.82422,0.0898 -1.21094,0.26563 -0.38672,0.17578 -0.73047,0.42578 -1.02734,0.74609 -0.29688,0.32032 -0.52735,0.69532 -0.69922,1.1211 -0.17188,0.42968 -0.25782,0.89453 -0.25782,1.39453 0,0.53515 0.0781,1.01953 0.23438,1.46484 0.15625,0.4375 0.37891,0.82031 0.67187,1.13672 0.28907,0.31641 0.64063,0.55859 1.04688,0.73047 0.40625,0.17187 0.86719,0.25781 1.37891,0.25781 0.59375,0 1.10156,-0.0977 1.52343,-0.28906 0.42188,-0.19141 0.74219,-0.39063 0.96485,-0.60156 z m 0,0"
     id="path29" />
  <path
     fill-rule="nonzero"
     fill="#1d1d1b"
     fill-opacity="1"
     d="M 148.91797,93.976558 H 152.25 l 0.76953,1.83985 h -4.78125 z m -3.42188,4.01172 5.00391,-11.53125 h 0.12109 l 5.00391,11.53125 h -2.53125 l -3.19531,-8.10937 1.58203,-1.08594 -3.82813,9.19531 z m 0,0"
     id="path30" />
  <path
     fill-rule="nonzero"
     fill="#1d1d1b"
     fill-opacity="1"
     d="m 163.71875,95.878908 h 1.29687 c 0.55079,0 1.05469,-0.0742 1.50782,-0.22266 0.45312,-0.14453 0.83984,-0.35547 1.16797,-0.63672 0.32421,-0.28125 0.57812,-0.63672 0.7539,-1.0664 0.17578,-0.42578 0.26172,-0.91407 0.26172,-1.46875 0,-0.72266 -0.11719,-1.3125 -0.35156,-1.76953 -0.23828,-0.45704 -0.53125,-0.8125 -0.875,-1.0625 -0.34766,-0.25 -0.70313,-0.42188 -1.0625,-0.51954 -0.36328,-0.0977 -0.66797,-0.14453 -0.92188,-0.14453 h -1.77734 z m -2.1875,2.10937 v -11.09375 h 3.31641 c 1.11718,0 2.0664,0.16797 2.85156,0.4961 0.78125,0.33203 1.41406,0.77343 1.89062,1.32812 0.47657,0.55078 0.82422,1.17188 1.04688,1.85156 0.22265,0.6836 0.33203,1.3711 0.33203,2.06641 0,0.82422 -0.14844,1.56641 -0.44531,2.22266 -0.29688,0.66015 -0.69922,1.22265 -1.21094,1.6875 -0.51563,0.46875 -1.10938,0.82422 -1.78125,1.07031 -0.67188,0.24609 -1.38672,0.37109 -2.14063,0.37109 z m 0,0"
     id="path31" />
  <path
     fill-rule="nonzero"
     fill="#1d1d1b"
     fill-opacity="1"
     d="m 172.85156,86.894528 h 7.56641 v 2.10938 h -5.37891 v 2.36719 h 4.76172 v 2.10937 h -4.76172 v 2.39453 h 5.58985 v 2.11328 h -7.77735 z m 0,0"
     id="path32" />
  <path
     fill-rule="nonzero"
     fill="#1d1d1b"
     fill-opacity="1"
     d="m 182.58984,86.894528 h 2.1836 v 8.98047 h 5.21484 v 2.11328 h -7.39844 z m 0,0"
     id="path33" />
  <path
     fill-rule="nonzero"
     fill="#1d1d1b"
     fill-opacity="1"
     d="m 191.94922,86.894528 h 2.18359 v 8.98047 h 5.21485 v 2.11328 h -7.39844 z m 0,0"
     id="path34" />
  <path
     fill-rule="nonzero"
     fill="#1d1d1b"
     fill-opacity="1"
     d="m 200.17578,89.140628 c 0.22266,-0.19922 0.40234,-0.49219 0.54297,-0.875 0.14062,-0.38282 0.17578,-0.7461 0.10547,-1.10157 l 1.61328,-0.10156 c 0.0586,0.27735 0.0391,0.58985 -0.0664,0.92969 -0.10547,0.34375 -0.25781,0.65625 -0.45312,0.9375 -0.19531,0.28125 -0.41406,0.49219 -0.65625,0.63281 z m 0,0"
     id="path35" />
  <path
     fill-rule="nonzero"
     fill="#1d1d1b"
     fill-opacity="1"
     d="m 203.97656,86.894528 h 2.1836 v 11.09375 h -2.1836 z m 0,0"
     id="path36" />
  <path
     fill-rule="nonzero"
     fill="#1d1d1b"
     fill-opacity="1"
     d="m 218.65625,98.441408 -8.41016,-7.59766 0.64844,0.36328 0.043,6.78125 h -2.21484 v -11.53125 h 0.0898 l 8.23047,7.56641 -0.48047,-0.21094 -0.0469,-6.91797 h 2.20313 v 11.54688 z m 0,0"
     id="path37" />
  <path
     fill-rule="nonzero"
     fill="#1d1d1b"
     fill-opacity="1"
     d="m 221.27734,86.894528 h 6.9336 v 2.10938 h -4.7461 v 2.51953 h 4.11328 v 2.10937 h -4.11328 v 4.35547 h -2.1875 z m 0,0"
     id="path38" />
  <path
     fill-rule="nonzero"
     fill="#1d1d1b"
     fill-opacity="1"
     d="m 231.60156,92.457028 c 0,0.49219 0.0899,0.94922 0.26563,1.37891 0.17578,0.42578 0.42187,0.80469 0.73828,1.12891 0.3164,0.32812 0.68359,0.58203 1.10156,0.76171 0.41406,0.17969 0.87109,0.27344 1.36328,0.27344 0.46875,0 0.91016,-0.0937 1.31641,-0.27344 0.40625,-0.17968 0.76172,-0.43359 1.0625,-0.76171 0.30078,-0.32422 0.53906,-0.70313 0.71094,-1.12891 0.16796,-0.42969 0.2539,-0.88672 0.2539,-1.37891 0,-0.5039 -0.0859,-0.97265 -0.26172,-1.40234 -0.17578,-0.43359 -0.41797,-0.8125 -0.72656,-1.13672 -0.30469,-0.32812 -0.66406,-0.58203 -1.07812,-0.76172 -0.41016,-0.17969 -0.85547,-0.27344 -1.33985,-0.27344 -0.48047,0 -0.92969,0.0937 -1.33984,0.27344 -0.41406,0.17969 -0.77344,0.4336 -1.08594,0.76172 -0.3125,0.32422 -0.55078,0.70313 -0.72266,1.13672 -0.17187,0.42969 -0.25781,0.89844 -0.25781,1.40234 m -2.26172,0 c 0,-0.76562 0.14844,-1.48828 0.4375,-2.17187 0.29297,-0.6836 0.69532,-1.28906 1.21485,-1.81641 0.51562,-0.52734 1.11718,-0.9414 1.80078,-1.24219 0.68359,-0.30078 1.41797,-0.45312 2.19922,-0.45312 0.77343,0 1.5039,0.15234 2.1875,0.45312 0.68359,0.30079 1.28906,0.71485 1.8164,1.24219 0.52735,0.52735 0.9375,1.13281 1.23438,1.81641 0.29687,0.68359 0.44531,1.40625 0.44531,2.17187 0,0.78125 -0.14844,1.51563 -0.44531,2.19922 -0.29688,0.6836 -0.70703,1.28516 -1.23438,1.80078 -0.52734,0.51953 -1.13281,0.92188 -1.8164,1.21485 -0.6836,0.28906 -1.41407,0.43359 -2.1875,0.43359 -0.78125,0 -1.51563,-0.14453 -2.19922,-0.43359 -0.6836,-0.29297 -1.28516,-0.69532 -1.80078,-1.21485 -0.51953,-0.51562 -0.92188,-1.11718 -1.21485,-1.80078 -0.28906,-0.68359 -0.4375,-1.41797 -0.4375,-2.19922"
     id="path39" />
  <path
     fill-rule="nonzero"
     fill="#1d1d1b"
     fill-opacity="1"
     d="m 248.34766,93.707028 2.74218,4.28125 h -2.54687 l -2.80078,-4.21875 z m -2.05079,-1.35547 c 0.33204,0 0.60938,-0.0547 0.82813,-0.16796 0.22266,-0.10938 0.39453,-0.25 0.52344,-0.42188 0.125,-0.16797 0.21484,-0.34766 0.26953,-0.53516 0.0547,-0.18359 0.082,-0.35937 0.082,-0.51953 0,-0.12109 -0.0156,-0.27343 -0.0508,-0.45703 -0.0352,-0.1875 -0.10938,-0.375 -0.21875,-0.5664 -0.11328,-0.19141 -0.28125,-0.35157 -0.50391,-0.48438 -0.23047,-0.12891 -0.53125,-0.19531 -0.91406,-0.19531 h -1.56641 v 3.34765 z m -0.375,-5.45703 c 0.69141,0 1.3125,0.0859 1.85157,0.26172 0.54297,0.17969 1,0.42969 1.36718,0.75391 0.36329,0.32812 0.64454,0.71875 0.83594,1.17578 0.1875,0.46094 0.28516,0.97266 0.28516,1.54687 0,0.45313 -0.0664,0.90235 -0.20313,1.35547 -0.13672,0.45313 -0.35547,0.86328 -0.66406,1.23828 -0.30859,0.3711 -0.71094,0.66797 -1.21094,0.89454 -0.5039,0.22656 -1.125,0.33984 -1.87109,0.33984 h -1.56641 v 3.52734 h -2.1875 v -11.09375 z m 0,0"
     id="path40" />
  <path
     fill-rule="nonzero"
     fill="#1d1d1b"
     fill-opacity="1"
     d="m 252.59766,97.988278 v -11.54687 h 0.0156 l 6.16406,8.74219 -0.93359,-0.21094 6.14844,-8.53125 h 0.0312 v 11.54687 h -2.1875 v -6.61718 l 0.13672,1.1289 -3.75391,5.33594 h -0.0273 l -3.85938,-5.33594 0.375,-1.03906 v 6.52734 z m 0,0"
     id="path41" />
  <path
     fill-rule="nonzero"
     fill="#1d1d1b"
     fill-opacity="1"
     d="m 268.75781,93.976558 h 3.32813 l 0.76953,1.83985 h -4.77735 z m -3.42578,4.01172 5.00781,-11.53125 h 0.11719 l 5.00781,11.53125 h -2.53515 l -3.19532,-8.10937 1.58204,-1.08594 -3.82813,9.19531 z m 0,0"
     id="path42" />
  <path
     fill-rule="nonzero"
     fill="#1d1d1b"
     fill-opacity="1"
     d="m 275.11719,86.894528 h 7.47656 v 2.10938 h -2.69922 v 8.98437 h -2.1875 v -8.98437 h -2.58984 z m 0,0"
     id="path43" />
  <path
     fill-rule="nonzero"
     fill="#1d1d1b"
     fill-opacity="1"
     d="m 284.39844,86.894528 h 2.1875 v 11.09375 h -2.1875 z m 0,0"
     id="path44" />
  <path
     fill-rule="nonzero"
     fill="#1d1d1b"
     fill-opacity="1"
     d="m 297.46875,97.070308 c -0.12109,0.0977 -0.34766,0.23438 -0.67188,0.40235 -0.32812,0.17187 -0.72656,0.32422 -1.19921,0.45312 -0.47266,0.13282 -0.99219,0.19141 -1.56641,0.17969 -0.875,-0.0156 -1.65625,-0.17578 -2.34375,-0.47266 -0.6875,-0.29687 -1.27344,-0.69921 -1.75,-1.21093 -0.47656,-0.51563 -0.83984,-1.10157 -1.08984,-1.76563 -0.25391,-0.66406 -0.37891,-1.37109 -0.37891,-2.125 0,-0.84375 0.12891,-1.61719 0.38672,-2.32031 0.2539,-0.70313 0.62109,-1.3125 1.09765,-1.82422 0.48047,-0.51172 1.04688,-0.91016 1.71094,-1.19141 0.66406,-0.28125 1.39844,-0.42187 2.19922,-0.42187 0.74609,0 1.40234,0.10156 1.97656,0.30078 0.57032,0.20313 1.03907,0.41797 1.40235,0.64844 l -0.85938,2.0664 c -0.2539,-0.1914 -0.58594,-0.39062 -1.0039,-0.59765 -0.41797,-0.20313 -0.89454,-0.3086 -1.4375,-0.3086 -0.42188,0 -0.82813,0.0898 -1.21485,0.26563 -0.38672,0.17578 -0.72656,0.42578 -1.02344,0.74609 -0.29687,0.32032 -0.53125,0.69532 -0.70312,1.1211 -0.17188,0.42968 -0.25391,0.89453 -0.25391,1.39453 0,0.53515 0.0781,1.01953 0.23438,1.46484 0.15625,0.4375 0.3789,0.82031 0.66797,1.13672 0.29297,0.31641 0.64062,0.55859 1.04687,0.73047 0.41016,0.17187 0.86719,0.25781 1.37891,0.25781 0.59375,0 1.10156,-0.0977 1.52344,-0.28906 0.42187,-0.19141 0.74609,-0.39063 0.96484,-0.60156 z m 0,0"
     id="path45" />
  <path
     fill-rule="nonzero"
     fill="#1d1d1b"
     fill-opacity="1"
     d="m 301.52344,93.976558 h 3.32812 l 0.76953,1.83985 h -4.77734 z m -3.42578,4.01172 5.0039,-11.53125 h 0.1211 l 5.0039,11.53125 h -2.53125 l -3.19531,-8.10937 1.58203,-1.08594 -3.82812,9.19531 z m 0,0"
     id="path46" />
  <path
     fill-rule="nonzero"
     fill="#f26611"
     fill-opacity="1"
     d="M 0,51.832028 V -2e-6 h 14.94922 v 6.75781 h -6.3125 v 38.32032 h 6.3125 v 6.7539 z m 0,0"
     id="path47" />
  <path
     fill-rule="nonzero"
     fill="#1d1d1b"
     fill-opacity="1"
     d="m 24.80859,45.089848 h 9.02344 V 6.324218 h -9.02344 z m 0,0"
     id="path48" />
  <path
     fill-rule="nonzero"
     fill="#1d1d1b"
     fill-opacity="1"
     d="M 73.48437,6.328128 H 39.70312 v 7.30859 h 12.40625 v 31.45313 h 8.96875 v -31.45313 h 12.40625 z m 0,0"
     id="path49" />
  <path
     fill-rule="nonzero"
     fill="#1d1d1b"
     fill-opacity="1"
     d="M 87.85547,29.972658 94,15.195308 l 6.14453,14.77735 z M 89.59766,6.324218 72.375,45.089848 h 9.19141 l 3.45703,-8.30469 h 17.95312 l 3.45703,8.30469 h 9.41016 L 98.45703,6.324218 Z m 0,0"
     id="path50" />
  <path
     fill-rule="nonzero"
     fill="#1d1d1b"
     fill-opacity="1"
     d="m 149.32031,32.105468 c -1.05078,1.82422 -2.52734,3.23047 -4.42969,4.20703 -1.90234,0.98047 -4.14453,1.46875 -6.72656,1.46875 h -8.14062 v -24.14453 h 8.14062 c 2.58203,0 4.82422,0.48828 6.72656,1.46484 1.90235,0.98047 3.37891,2.375 4.42969,4.1836 1.05078,1.80859 1.57813,3.94922 1.57813,6.42187 0,2.4375 -0.52735,4.57032 -1.57813,6.39844 m 0.41797,-23.37109 c -3.21484,-1.60547 -6.92578,-2.40625 -11.13281,-2.40625 h -17.60938 v 38.76172 h 17.60938 c 4.20703,0 7.91797,-0.80079 11.13281,-2.41016 3.21094,-1.60547 5.71875,-3.85547 7.53125,-6.75391 1.80469,-2.89843 2.71094,-6.30468 2.71094,-10.21875 0,-3.91406 -0.90625,-7.3164 -2.71094,-10.21484 -1.8125,-2.89844 -4.32031,-5.15234 -7.53125,-6.75781"
     id="path51" />
  <path
     fill-rule="nonzero"
     fill="#1d1d1b"
     fill-opacity="1"
     d="m 167.84375,45.089848 h 9.02734 V 6.324218 h -9.02734 z m 0,0"
     id="path52" />
  <path
     fill-rule="nonzero"
     fill="#1d1d1b"
     fill-opacity="1"
     d="M 213.80469,29.843748 194.53516,6.324218 h -7.42188 v 38.76563 h 8.86328 v -23.51563 l 19.26953,23.51563 h 7.41797 V 6.324218 h -8.85937 z m 0,0"
     id="path53" />
  <path
     fill-rule="nonzero"
     fill="#1d1d1b"
     fill-opacity="1"
     d="m 232.96484,45.089848 h 9.02735 v -14.1211 h 17.88672 v -7.19922 h -17.88672 v -10.24218 h 20.26953 v -7.20313 h -29.29688 z m 0,0"
     id="path54" />
  <path
     fill-rule="nonzero"
     fill="#1d1d1b"
     fill-opacity="1"
     d="m 299.05859,30.718748 c -0.60937,1.4961 -1.46875,2.8086 -2.57422,3.9336 -1.10937,1.125 -2.39062,1.99218 -3.85156,2.60156 -1.45703,0.60937 -3.05469,0.91406 -4.78906,0.91406 -1.73438,0 -3.33984,-0.30469 -4.81641,-0.91406 -1.47656,-0.60938 -2.76172,-1.47656 -3.85156,-2.60156 -1.08594,-1.125 -1.9375,-2.4375 -2.54687,-3.9336 -0.60547,-1.49219 -0.91407,-3.16406 -0.91407,-5.01172 0,-1.84375 0.3086,-3.51562 0.91407,-5.01172 0.60937,-1.49609 1.46093,-2.80468 2.54687,-3.92968 1.08984,-1.125 2.375,-1.99219 3.85156,-2.60547 1.47657,-0.60547 3.08203,-0.91406 4.81641,-0.91406 1.73437,0 3.33203,0.30859 4.78906,0.91406 1.46094,0.61328 2.74219,1.48047 3.85156,2.60547 1.10547,1.125 1.96485,2.43359 2.57422,3.92968 0.60938,1.4961 0.91407,3.16797 0.91407,5.01172 0,1.84766 -0.30469,3.51953 -0.91407,5.01172 m 8.41797,-13.03906 c -1.05469,-2.4375 -2.53906,-4.5625 -4.45703,-6.36719 -1.92187,-1.8125 -4.16406,-3.20312 -6.73047,-4.18359 -2.5664,-0.97656 -5.3789,-1.46875 -8.44531,-1.46875 -3.0625,0 -5.87891,0.5 -8.44531,1.49609 -2.56641,0.9961 -4.8086,2.40235 -6.72657,4.21094 -1.92187,1.80859 -3.40625,3.92187 -4.46093,6.33984 -1.05078,2.41797 -1.57813,5.08594 -1.57813,8 0,2.87891 0.52735,5.53907 1.57813,7.97657 1.05468,2.43359 2.53906,4.55859 4.46093,6.36718 1.91797,1.8086 4.17188,3.21094 6.75391,4.20703 2.58594,0.9961 5.41016,1.4961 8.47266,1.4961 3.02734,0 5.82422,-0.48828 8.39062,-1.46875 2.56641,-0.97656 4.8086,-2.3711 6.73047,-4.17969 1.91797,-1.80859 3.40234,-3.94141 4.45703,-6.39453 1.05078,-2.45703 1.57813,-5.125 1.57813,-8.00391 0,-2.91406 -0.52735,-5.58984 -1.57813,-8.02734"
     id="path55" />
  <path
     fill-rule="nonzero"
     fill="#f26611"
     fill-opacity="1"
     d="m 331.48047,51.832028 h -15.00781 v -6.7539 h 6.36718 V 6.757808 h -6.36718 V -2e-6 h 15.00781 z m 0,0"
     id="path56" />
</svg>
