<svg xmlns="http://www.w3.org/2000/svg" xmlns:xlink="http://www.w3.org/1999/xlink" contentStyleType="text/css" data-diagram-type="SEQUENCE" height="532px" preserveAspectRatio="none" style="width:767px;height:532px;background:#FFFFFF;" version="1.1" viewBox="0 0 767 532" width="767px" zoomAndPan="magnify"><title>Fasi didattiche</title><defs/><g><text fill="#000000" font-family="sans-serif" font-size="14" font-weight="bold" lengthAdjust="spacing" textLength="102.2136" x="334.0734" y="29.9659">Fasi didattiche</text><rect fill="none" height="349.7662" style="stroke:#000000;stroke-width:1.5;" width="751.3604" x="10" y="127.8419"/><g><title>Sist. Feedback</title><rect fill="#000000" fill-opacity="0.00000" height="415.4722" width="8" x="69.3888" y="79.1358"/><line style="stroke:#181818;stroke-width:0.5;stroke-dasharray:5,5;" x1="73" x2="73" y1="79.1358" y2="494.608"/></g><g><title>Formatore</title><rect fill="#000000" fill-opacity="0.00000" height="415.4722" width="8" x="174.6095" y="79.1358"/><line style="stroke:#181818;stroke-width:0.5;stroke-dasharray:5,5;" x1="177.7776" x2="177.7776" y1="79.1358" y2="494.608"/></g><g><title>Squadre</title><rect fill="#000000" fill-opacity="0.00000" height="415.4722" width="8" x="429.1141" y="79.1358"/><line style="stroke:#181818;stroke-width:0.5;stroke-dasharray:5,5;" x1="432.5692" x2="432.5692" y1="79.1358" y2="494.608"/></g><g><title>Studenti</title><rect fill="#000000" fill-opacity="0.00000" height="415.4722" width="8" x="626.4823" y="79.1358"/><line style="stroke:#181818;stroke-width:0.5;stroke-dasharray:5,5;" x1="629.8744" x2="629.8744" y1="79.1358" y2="494.608"/></g><g class="participant participant-head" data-participant="S"><rect fill="#E2E2F0" height="33.0679" rx="2.5" ry="2.5" style="stroke:#181818;stroke-width:0.5;" width="106.7776" x="20" y="45.0679"/><text fill="#000000" font-family="sans-serif" font-size="14" lengthAdjust="spacing" textLength="92.7776" x="27" y="67.0339">Sist. Feedback</text></g><g class="participant participant-tail" data-participant="S"><rect fill="#E2E2F0" height="33.0679" rx="2.5" ry="2.5" style="stroke:#181818;stroke-width:0.5;" width="106.7776" x="20" y="493.608"/><text fill="#000000" font-family="sans-serif" font-size="14" lengthAdjust="spacing" textLength="92.7776" x="27" y="515.574">Sist. Feedback</text></g><g class="participant participant-head" data-participant="I"><rect fill="#E2E2F0" height="33.0679" rx="2.5" ry="2.5" style="stroke:#181818;stroke-width:0.5;" width="83.6638" x="136.7776" y="45.0679"/><text fill="#000000" font-family="sans-serif" font-size="14" lengthAdjust="spacing" textLength="69.6638" x="143.7776" y="67.0339">Formatore</text></g><g class="participant participant-tail" data-participant="I"><rect fill="#E2E2F0" height="33.0679" rx="2.5" ry="2.5" style="stroke:#181818;stroke-width:0.5;" width="83.6638" x="136.7776" y="493.608"/><text fill="#000000" font-family="sans-serif" font-size="14" lengthAdjust="spacing" textLength="69.6638" x="143.7776" y="515.574">Formatore</text></g><g class="participant participant-head" data-participant="G"><rect fill="#E2E2F0" height="33.0679" rx="2.5" ry="2.5" style="stroke:#181818;stroke-width:0.5;" width="69.0898" x="398.5692" y="45.0679"/><text fill="#000000" font-family="sans-serif" font-size="14" lengthAdjust="spacing" textLength="55.0898" x="405.5692" y="67.0339">Squadre</text></g><g class="participant participant-tail" data-participant="G"><rect fill="#E2E2F0" height="33.0679" rx="2.5" ry="2.5" style="stroke:#181818;stroke-width:0.5;" width="69.0898" x="398.5692" y="493.608"/><text fill="#000000" font-family="sans-serif" font-size="14" lengthAdjust="spacing" textLength="55.0898" x="405.5692" y="515.574">Squadre</text></g><g class="participant participant-head" data-participant="C"><rect fill="#E2E2F0" height="33.0679" rx="2.5" ry="2.5" style="stroke:#181818;stroke-width:0.5;" width="69.2158" x="595.8744" y="45.0679"/><text fill="#000000" font-family="sans-serif" font-size="14" lengthAdjust="spacing" textLength="55.2158" x="602.8744" y="67.0339">Studenti</text></g><g class="participant participant-tail" data-participant="C"><rect fill="#E2E2F0" height="33.0679" rx="2.5" ry="2.5" style="stroke:#181818;stroke-width:0.5;" width="69.2158" x="595.8744" y="493.608"/><text fill="#000000" font-family="sans-serif" font-size="14" lengthAdjust="spacing" textLength="55.2158" x="602.8744" y="515.574">Studenti</text></g><g class="message" data-participant-1="S" data-participant-2="C"><polygon fill="#181818" points="618.4823,108.8419,628.4823,112.8419,618.4823,116.8419,622.4823,112.8419" style="stroke:#181818;stroke-width:1;"/><line style="stroke:#181818;stroke-width:1;" x1="73.3888" x2="624.4823" y1="112.8419" y2="112.8419"/><text fill="#000000" font-family="sans-serif" font-size="13" lengthAdjust="spacing" textLength="246.2982" x="80.3888" y="107.0328">Punteggio iniziale e formazione squadre</text></g><path d="M10,127.8419 L83.34,127.8419 L83.34,137.5479 L73.34,147.5479 L10,147.5479 L10,127.8419" fill="#EEEEEE" style="stroke:#000000;stroke-width:1.5;"/><rect fill="none" height="349.7662" style="stroke:#000000;stroke-width:1.5;" width="751.3604" x="10" y="127.8419"/><text fill="#000000" font-family="sans-serif" font-size="13" font-weight="bold" lengthAdjust="spacing" textLength="28.34" x="25" y="142.7389">loop</text><text fill="#000000" font-family="sans-serif" font-size="11" font-weight="bold" lengthAdjust="spacing" textLength="104.7962" x="98.34" y="141.6008">[Per ogni problema</text><text fill="#000000" font-family="sans-serif" font-size="11" font-style="italic" font-weight="bold" lengthAdjust="spacing" textLength="6.7099" x="205.9962" y="141.6008">P</text><text fill="#000000" font-family="sans-serif" font-size="11" font-weight="bold" lengthAdjust="spacing" textLength="3.641" x="212.7062" y="141.6008">]</text><g class="message" data-participant-1="I" data-participant-2="C"><polygon fill="#181818" points="618.4823,167.2539,628.4823,171.2539,618.4823,175.2539,622.4823,171.2539" style="stroke:#181818;stroke-width:1;"/><line style="stroke:#181818;stroke-width:1;" x1="178.6095" x2="624.4823" y1="171.2539" y2="171.2539"/><text fill="#000000" font-family="sans-serif" font-size="13" lengthAdjust="spacing" textLength="54.145" x="185.6095" y="165.4449">Presenta</text><text fill="#000000" font-family="sans-serif" font-size="13" font-style="italic" lengthAdjust="spacing" textLength="7.371" x="243.1346" y="165.4449">P</text><text fill="#000000" font-family="sans-serif" font-size="13" lengthAdjust="spacing" textLength="162.1232" x="253.8856" y="165.4449">e propone quiz individuale</text></g><g class="message" data-participant-1="C" data-participant-2="S"><polygon fill="#181818" points="84.3888,198.9599,74.3888,202.9599,84.3888,206.9599,80.3888,202.9599" style="stroke:#181818;stroke-width:1;"/><line style="stroke:#181818;stroke-width:1;" x1="78.3888" x2="629.4823" y1="202.9599" y2="202.9599"/><text fill="#000000" font-family="sans-serif" font-size="13" lengthAdjust="spacing" textLength="99.7881" x="90.3888" y="197.1509">Risponde al quiz</text></g><g class="message" data-participant-1="S" data-participant-2="C"><polygon fill="#181818" points="618.4823,230.6659,628.4823,234.6659,618.4823,238.6659,622.4823,234.6659" style="stroke:#181818;stroke-width:1;"/><line style="stroke:#181818;stroke-width:1;" x1="73.3888" x2="624.4823" y1="234.6659" y2="234.6659"/><text fill="#000000" font-family="sans-serif" font-size="13" lengthAdjust="spacing" textLength="127.6731" x="80.3888" y="228.8569">Aggiorna la classifica</text></g><g class="message" data-participant-1="C" data-participant-2="C"><line style="stroke:#181818;stroke-width:1;" x1="630.4823" x2="672.4823" y1="266.3719" y2="266.3719"/><line style="stroke:#181818;stroke-width:1;" x1="672.4823" x2="672.4823" y1="266.3719" y2="279.3719"/><line style="stroke:#181818;stroke-width:1;" x1="631.4823" x2="672.4823" y1="279.3719" y2="279.3719"/><polygon fill="#181818" points="641.4823,275.3719,631.4823,279.3719,641.4823,283.3719,637.4823,279.3719" style="stroke:#181818;stroke-width:1;"/><text fill="#000000" font-family="sans-serif" font-size="13" lengthAdjust="spacing" textLength="111.8781" x="637.4823" y="260.5629">Discute le risposte</text></g><g class="message" data-participant-1="I" data-participant-2="C"><polygon fill="#181818" points="618.4823,307.0779,628.4823,311.0779,618.4823,315.0779,622.4823,311.0779" style="stroke:#181818;stroke-width:1;"/><line style="stroke:#181818;stroke-width:1;" x1="178.6095" x2="624.4823" y1="311.0779" y2="311.0779"/><text fill="#000000" font-family="sans-serif" font-size="13" lengthAdjust="spacing" textLength="144.8461" x="185.6095" y="305.2689">Illustra la soluzione na&#239;f</text></g><g class="message" data-participant-1="I" data-participant-2="G"><polygon fill="#181818" points="421.1141,338.784,431.1141,342.784,421.1141,346.784,425.1141,342.784" style="stroke:#181818;stroke-width:1;"/><line style="stroke:#181818;stroke-width:1;" x1="178.6095" x2="427.1141" y1="342.784" y2="342.784"/><text fill="#000000" font-family="sans-serif" font-size="13" lengthAdjust="spacing" textLength="167.1411" x="185.6095" y="336.975">Propone la sfida complessa</text></g><g class="message" data-participant-1="G" data-participant-2="S"><polygon fill="#181818" points="84.3888,370.49,74.3888,374.49,84.3888,378.49,80.3888,374.49" style="stroke:#181818;stroke-width:1;"/><line style="stroke:#181818;stroke-width:1;" x1="78.3888" x2="432.1141" y1="374.49" y2="374.49"/><text fill="#000000" font-family="sans-serif" font-size="13" lengthAdjust="spacing" textLength="335.7253" x="90.3888" y="368.681">Elabora e consegna la soluzione, decide il bonus/malus</text></g><g class="message" data-participant-1="G" data-participant-2="C"><polygon fill="#181818" points="618.4823,402.196,628.4823,406.196,618.4823,410.196,622.4823,406.196" style="stroke:#181818;stroke-width:1;"/><line style="stroke:#181818;stroke-width:1;" x1="433.1141" x2="624.4823" y1="406.196" y2="406.196"/><text fill="#000000" font-family="sans-serif" font-size="13" lengthAdjust="spacing" textLength="173.3682" x="440.1141" y="400.387">Espone il processo risolutivo</text></g><g class="message" data-participant-1="S" data-participant-2="C"><polygon fill="#181818" points="618.4823,433.902,628.4823,437.902,618.4823,441.902,622.4823,437.902" style="stroke:#181818;stroke-width:1;"/><line style="stroke:#181818;stroke-width:1;" x1="73.3888" x2="624.4823" y1="437.902" y2="437.902"/><text fill="#000000" font-family="sans-serif" font-size="13" lengthAdjust="spacing" textLength="127.6731" x="80.3888" y="432.093">Aggiorna la classifica</text></g><g class="message" data-participant-1="I" data-participant-2="C"><polygon fill="#181818" points="618.4823,465.608,628.4823,469.608,618.4823,473.608,622.4823,469.608" style="stroke:#181818;stroke-width:1;"/><line style="stroke:#181818;stroke-width:1;" x1="178.6095" x2="624.4823" y1="469.608" y2="469.608"/><text fill="#000000" font-family="sans-serif" font-size="13" lengthAdjust="spacing" textLength="167.1411" x="185.6095" y="463.799">Spiega la teoria e formula il</text><text fill="#000000" font-family="sans-serif" font-size="13" font-weight="bold" lengthAdjust="spacing" textLength="52.65" x="356.1307" y="463.799">modello</text></g><!--SRC=[ZP51Ri9034NtSmgBJINKDdiMbIeAY1rgJk1aJ6frCWxZ6HPSgeVenUe4489Livp__Vzpd3a7WZKgWsUFENFxHSuz0POiiVGD9US6JFRE0yOCiverlyAQo3VOViy05UfxnrfIZraIJUBsOVnGq5-apOEKYwUOUTAMpjNmyWRB1UnApDHrBC2HJum6JB0VIquiaK3FaSu5aG5sb42wo30aQGBr25Mrgoe7zcslYOdKcYwIfPbt6ACEXK_Muld8lbZHDBKSf-e5VBAQoHDWc8oJU8Ly7m5JH0W8RK1LtdEBjtcpVB2s9HCOVngZDDCTrJQ4eZbD4IgXdBUB-Fkpl_as8_qPThJjxMZGIZy4KZtNRIwugu2DM1gP7fMwU1_y39vQjcquG6Edrgf7wxz56D5Afo9ps0zghK56Sal8V9J_hdzThnwOkicGIHBZvOZ57gnWFk_5KmWodpkA_Wy0]--></g></svg>