<svg xmlns="http://www.w3.org/2000/svg" xmlns:xlink="http://www.w3.org/1999/xlink" contentStyleType="text/css" data-diagram-type="SEQUENCE" height="654px" preserveAspectRatio="none" style="width:699px;height:654px;background:#FFFFFF;" version="1.1" viewBox="0 0 699 654" width="699px" zoomAndPan="magnify"><title>Fasi didattiche</title><defs/><g><text fill="#000000" font-family="sans-serif" font-size="14" font-weight="bold" lengthAdjust="spacing" textLength="102.2136" x="300.3917" y="29.9659">Fasi didattiche</text><rect fill="none" height="381.4722" style="stroke:#000000;stroke-width:1.5;" width="683.9969" x="10" y="172.8419"/><g><title>Sist. Feedback</title><rect fill="#000000" fill-opacity="0.00000" height="447.1782" width="8" x="69.3888" y="124.1358"/><line style="stroke:#181818;stroke-width:0.5;stroke-dasharray:5,5;" x1="73" x2="73" y1="124.1358" y2="571.314"/></g><g><title>Formatore</title><rect fill="#000000" fill-opacity="0.00000" height="447.1782" width="8" x="170.6095" y="124.1358"/><line style="stroke:#181818;stroke-width:0.5;stroke-dasharray:5,5;" x1="173.7776" x2="173.7776" y1="124.1358" y2="571.314"/></g><g><title>Squadre</title><rect fill="#000000" fill-opacity="0.00000" height="447.1782" width="8" x="361.7507" y="124.1358"/><line style="stroke:#181818;stroke-width:0.5;stroke-dasharray:5,5;" x1="365.2058" x2="365.2058" y1="124.1358" y2="571.314"/></g><g><title>Studenti</title><rect fill="#000000" fill-opacity="0.00000" height="447.1782" width="8" x="559.1188" y="124.1358"/><line style="stroke:#181818;stroke-width:0.5;stroke-dasharray:5,5;" x1="562.5109" x2="562.5109" y1="124.1358" y2="571.314"/></g><g class="participant participant-head" data-participant="S"><rect fill="#E2E2F0" height="33.0679" rx="2.5" ry="2.5" style="stroke:#181818;stroke-width:0.5;" width="106.7776" x="20" y="90.0679"/><text fill="#000000" font-family="sans-serif" font-size="14" lengthAdjust="spacing" textLength="92.7776" x="27" y="112.0339">Sist. Feedback</text></g><g class="participant participant-tail" data-participant="S"><rect fill="#E2E2F0" height="33.0679" rx="2.5" ry="2.5" style="stroke:#181818;stroke-width:0.5;" width="106.7776" x="20" y="570.314"/><text fill="#000000" font-family="sans-serif" font-size="14" lengthAdjust="spacing" textLength="92.7776" x="27" y="592.28">Sist. Feedback</text></g><g class="participant participant-head" data-participant="I"><text fill="#000000" font-family="sans-serif" font-size="14" lengthAdjust="spacing" textLength="69.6638" x="136.7776" y="120.0339">Formatore</text><ellipse cx="174.6095" cy="53.5679" fill="#E2E2F0" rx="8" ry="8" style="stroke:#181818;stroke-width:0.5;"/><path d="M174.6095,61.5679 L174.6095,88.5679 M161.6095,69.5679 L187.6095,69.5679 M174.6095,88.5679 L161.6095,103.5679 M174.6095,88.5679 L187.6095,103.5679" fill="none" style="stroke:#181818;stroke-width:0.5;"/></g><g class="participant participant-tail" data-participant="I"><text fill="#000000" font-family="sans-serif" font-size="14" lengthAdjust="spacing" textLength="69.6638" x="136.7776" y="585.28">Formatore</text><ellipse cx="174.6095" cy="597.882" fill="#E2E2F0" rx="8" ry="8" style="stroke:#181818;stroke-width:0.5;"/><path d="M174.6095,605.882 L174.6095,632.882 M161.6095,613.882 L187.6095,613.882 M174.6095,632.882 L161.6095,647.882 M174.6095,632.882 L187.6095,647.882" fill="none" style="stroke:#181818;stroke-width:0.5;"/></g><g class="participant participant-head" data-participant="G"><text fill="#000000" font-family="sans-serif" font-size="14" lengthAdjust="spacing" textLength="55.0898" x="335.2058" y="120.0339">Squadre</text><ellipse cx="365.7507" cy="53.5679" fill="#E2E2F0" rx="8" ry="8" style="stroke:#181818;stroke-width:0.5;"/><path d="M365.7507,61.5679 L365.7507,88.5679 M352.7507,69.5679 L378.7507,69.5679 M365.7507,88.5679 L352.7507,103.5679 M365.7507,88.5679 L378.7507,103.5679" fill="none" style="stroke:#181818;stroke-width:0.5;"/></g><g class="participant participant-tail" data-participant="G"><text fill="#000000" font-family="sans-serif" font-size="14" lengthAdjust="spacing" textLength="55.0898" x="335.2058" y="585.28">Squadre</text><ellipse cx="365.7507" cy="597.882" fill="#E2E2F0" rx="8" ry="8" style="stroke:#181818;stroke-width:0.5;"/><path d="M365.7507,605.882 L365.7507,632.882 M352.7507,613.882 L378.7507,613.882 M365.7507,632.882 L352.7507,647.882 M365.7507,632.882 L378.7507,647.882" fill="none" style="stroke:#181818;stroke-width:0.5;"/></g><g class="participant participant-head" data-participant="C"><text fill="#000000" font-family="sans-serif" font-size="14" lengthAdjust="spacing" textLength="55.2158" x="532.5109" y="120.0339">Studenti</text><ellipse cx="563.1188" cy="53.5679" fill="#E2E2F0" rx="8" ry="8" style="stroke:#181818;stroke-width:0.5;"/><path d="M563.1188,61.5679 L563.1188,88.5679 M550.1188,69.5679 L576.1188,69.5679 M563.1188,88.5679 L550.1188,103.5679 M563.1188,88.5679 L576.1188,103.5679" fill="none" style="stroke:#181818;stroke-width:0.5;"/></g><g class="participant participant-tail" data-participant="C"><text fill="#000000" font-family="sans-serif" font-size="14" lengthAdjust="spacing" textLength="55.2158" x="532.5109" y="585.28">Studenti</text><ellipse cx="563.1188" cy="597.882" fill="#E2E2F0" rx="8" ry="8" style="stroke:#181818;stroke-width:0.5;"/><path d="M563.1188,605.882 L563.1188,632.882 M550.1188,613.882 L576.1188,613.882 M563.1188,632.882 L550.1188,647.882 M563.1188,632.882 L576.1188,647.882" fill="none" style="stroke:#181818;stroke-width:0.5;"/></g><g class="message" data-participant-1="S" data-participant-2="C"><polygon fill="#181818" points="551.1188,153.8419,561.1188,157.8419,551.1188,161.8419,555.1188,157.8419" style="stroke:#181818;stroke-width:1;"/><line style="stroke:#181818;stroke-width:1;" x1="73.3888" x2="557.1188" y1="157.8419" y2="157.8419"/><text fill="#000000" font-family="sans-serif" font-size="13" lengthAdjust="spacing" textLength="246.2982" x="80.3888" y="152.0328">Punteggio iniziale e formazione squadre</text></g><path d="M10,172.8419 L83.34,172.8419 L83.34,182.5479 L73.34,192.5479 L10,192.5479 L10,172.8419" fill="#EEEEEE" style="stroke:#000000;stroke-width:1.5;"/><rect fill="none" height="381.4722" style="stroke:#000000;stroke-width:1.5;" width="683.9969" x="10" y="172.8419"/><text fill="#000000" font-family="sans-serif" font-size="13" font-weight="bold" lengthAdjust="spacing" textLength="28.34" x="25" y="187.7389">loop</text><text fill="#000000" font-family="sans-serif" font-size="11" font-weight="bold" lengthAdjust="spacing" textLength="104.7962" x="98.34" y="186.6008">[Per ogni problema</text><text fill="#000000" font-family="sans-serif" font-size="11" font-style="italic" font-weight="bold" lengthAdjust="spacing" textLength="6.7099" x="205.9962" y="186.6008">P</text><text fill="#000000" font-family="sans-serif" font-size="11" font-weight="bold" lengthAdjust="spacing" textLength="3.641" x="212.7062" y="186.6008">]</text><g class="message" data-participant-1="I" data-participant-2="C"><polygon fill="#181818" points="551.1188,212.2539,561.1188,216.2539,551.1188,220.2539,555.1188,216.2539" style="stroke:#181818;stroke-width:1;"/><line style="stroke:#181818;stroke-width:1;" x1="174.6095" x2="557.1188" y1="216.2539" y2="216.2539"/><text fill="#000000" font-family="sans-serif" font-size="13" lengthAdjust="spacing" textLength="54.145" x="181.6095" y="210.4449">Presenta</text><text fill="#000000" font-family="sans-serif" font-size="13" font-style="italic" lengthAdjust="spacing" textLength="7.371" x="239.1346" y="210.4449">P</text><text fill="#000000" font-family="sans-serif" font-size="13" lengthAdjust="spacing" textLength="162.1232" x="249.8856" y="210.4449">e propone quiz individuale</text></g><g class="message" data-participant-1="C" data-participant-2="S"><polygon fill="#181818" points="84.3888,243.9599,74.3888,247.9599,84.3888,251.9599,80.3888,247.9599" style="stroke:#181818;stroke-width:1;"/><line style="stroke:#181818;stroke-width:1;" x1="78.3888" x2="562.1188" y1="247.9599" y2="247.9599"/><text fill="#000000" font-family="sans-serif" font-size="13" lengthAdjust="spacing" textLength="99.7881" x="90.3888" y="242.1509">Risponde al quiz</text></g><g class="message" data-participant-1="S" data-participant-2="C"><polygon fill="#181818" points="551.1188,275.6659,561.1188,279.6659,551.1188,283.6659,555.1188,279.6659" style="stroke:#181818;stroke-width:1;"/><line style="stroke:#181818;stroke-width:1;" x1="73.3888" x2="557.1188" y1="279.6659" y2="279.6659"/><text fill="#000000" font-family="sans-serif" font-size="13" lengthAdjust="spacing" textLength="127.6731" x="80.3888" y="273.8569">Aggiorna la classifica</text></g><g class="message" data-participant-1="C" data-participant-2="C"><line style="stroke:#181818;stroke-width:1;" x1="563.1188" x2="605.1188" y1="311.3719" y2="311.3719"/><line style="stroke:#181818;stroke-width:1;" x1="605.1188" x2="605.1188" y1="311.3719" y2="324.3719"/><line style="stroke:#181818;stroke-width:1;" x1="564.1188" x2="605.1188" y1="324.3719" y2="324.3719"/><polygon fill="#181818" points="574.1188,320.3719,564.1188,324.3719,574.1188,328.3719,570.1188,324.3719" style="stroke:#181818;stroke-width:1;"/><text fill="#000000" font-family="sans-serif" font-size="13" lengthAdjust="spacing" textLength="111.8781" x="570.1188" y="305.5629">Discute le risposte</text></g><g class="message" data-participant-1="I" data-participant-2="C"><polygon fill="#181818" points="551.1188,352.0779,561.1188,356.0779,551.1188,360.0779,555.1188,356.0779" style="stroke:#181818;stroke-width:1;"/><line style="stroke:#181818;stroke-width:1;" x1="174.6095" x2="557.1188" y1="356.0779" y2="356.0779"/><text fill="#000000" font-family="sans-serif" font-size="13" lengthAdjust="spacing" textLength="144.8461" x="181.6095" y="350.2689">Illustra la soluzione na&#239;f</text></g><g class="message" data-participant-1="I" data-participant-2="G"><polygon fill="#181818" points="353.7507,383.784,363.7507,387.784,353.7507,391.784,357.7507,387.784" style="stroke:#181818;stroke-width:1;"/><line style="stroke:#181818;stroke-width:1;" x1="174.6095" x2="359.7507" y1="387.784" y2="387.784"/><text fill="#000000" font-family="sans-serif" font-size="13" lengthAdjust="spacing" textLength="167.1411" x="181.6095" y="381.975">Propone la sfida complessa</text></g><g class="message" data-participant-1="G" data-participant-2="S"><polygon fill="#181818" points="84.3888,415.49,74.3888,419.49,84.3888,423.49,80.3888,419.49" style="stroke:#181818;stroke-width:1;"/><line style="stroke:#181818;stroke-width:1;" x1="78.3888" x2="364.7507" y1="419.49" y2="419.49"/><text fill="#000000" font-family="sans-serif" font-size="13" lengthAdjust="spacing" textLength="195.0912" x="90.3888" y="413.681">Elabora e consegna la soluzione</text></g><g class="message" data-participant-1="G" data-participant-2="S"><polygon fill="#181818" points="84.3888,447.196,74.3888,451.196,84.3888,455.196,80.3888,451.196" style="stroke:#181818;stroke-width:1;"/><line style="stroke:#181818;stroke-width:1;" x1="78.3888" x2="364.7507" y1="451.196" y2="451.196"/><text fill="#000000" font-family="sans-serif" font-size="13" lengthAdjust="spacing" textLength="178.8542" x="90.3888" y="445.387">Sceglie importo bonus/malus</text></g><g class="message" data-participant-1="G" data-participant-2="C"><polygon fill="#181818" points="551.1188,478.902,561.1188,482.902,551.1188,486.902,555.1188,482.902" style="stroke:#181818;stroke-width:1;"/><line style="stroke:#181818;stroke-width:1;" x1="365.7507" x2="557.1188" y1="482.902" y2="482.902"/><text fill="#000000" font-family="sans-serif" font-size="13" lengthAdjust="spacing" textLength="173.3682" x="372.7507" y="477.093">Espone il processo risolutivo</text></g><g class="message" data-participant-1="S" data-participant-2="C"><polygon fill="#181818" points="551.1188,510.608,561.1188,514.608,551.1188,518.608,555.1188,514.608" style="stroke:#181818;stroke-width:1;"/><line style="stroke:#181818;stroke-width:1;" x1="73.3888" x2="557.1188" y1="514.608" y2="514.608"/><text fill="#000000" font-family="sans-serif" font-size="13" lengthAdjust="spacing" textLength="127.6731" x="80.3888" y="508.799">Aggiorna la classifica</text></g><g class="message" data-participant-1="I" data-participant-2="C"><polygon fill="#181818" points="551.1188,542.314,561.1188,546.314,551.1188,550.314,555.1188,546.314" style="stroke:#181818;stroke-width:1;"/><line style="stroke:#181818;stroke-width:1;" x1="174.6095" x2="557.1188" y1="546.314" y2="546.314"/><text fill="#000000" font-family="sans-serif" font-size="13" lengthAdjust="spacing" textLength="167.1411" x="181.6095" y="540.505">Spiega la teoria e formula il</text><text fill="#000000" font-family="sans-serif" font-size="13" font-weight="bold" lengthAdjust="spacing" textLength="52.65" x="352.1307" y="540.505">modello</text></g><!--SRC=[ZL4nZXin3Epr2iBD0GQIxQyu8F3PXZlZzWLSYTuGqOfx4kN2dxf7v6EXrdOCTwTA60vdXgIoHe8T5eR00LNP_oRdNW2hIghJGDcv6RFXF6DIMFLSz2ViYCA0_iyAi43lqAjaMEqaJsW_Mk337Uu_AuORkFyFQWsKb1TqurmFFzvWymh7cfJ6aGKuyONHuX6Scl259H6KgvXpKMI68sMGCJ7CMOP84qBN7RlEWRt3NJ5JCQTRoTICEpUfpyeNSmbyvb3DQEdQjAx-5Jwu62aGO5o8I_4UybSBc1D2HF0HI-4JUtpq6-MTYwzAOFbpaofAJwaECTQYUP4e4kjrkeH_lquFthwbluPjj9ET2BnCSwHIhdRxMznjn45CZQoU2etfMVY9stiQ8nFmD4jMWS4kNRe9BT23Pn6tPN7cs3RcpLBQA2QfV9RlxkC-RpypZGj1IJBZxQhL03DOhoS95AEiruvI-0S0]--></g></svg>