<svg xmlns="http://www.w3.org/2000/svg" xmlns:xlink="http://www.w3.org/1999/xlink" contentStyleType="text/css" data-diagram-type="SEQUENCE" height="623px" preserveAspectRatio="none" style="width:767px;height:623px;background:#FFFFFF;" version="1.1" viewBox="0 0 767 623" width="767px" zoomAndPan="magnify"><title>Fasi didattiche</title><defs/><g><text fill="#000000" font-family="sans-serif" font-size="14" font-weight="bold" lengthAdjust="spacing" textLength="102.2136" x="334.0734" y="29.9659">Fasi didattiche</text><rect fill="none" height="349.7662" style="stroke:#000000;stroke-width:1.5;" width="751.3604" x="10" y="172.8419"/><g><title>Sist. Feedback</title><rect fill="#000000" fill-opacity="0.00000" height="415.4722" width="8" x="69.3888" y="124.1358"/><line style="stroke:#181818;stroke-width:0.5;stroke-dasharray:5,5;" x1="73" x2="73" y1="124.1358" y2="539.608"/></g><g><title>Formatore</title><rect fill="#000000" fill-opacity="0.00000" height="415.4722" width="8" x="170.6095" y="124.1358"/><line style="stroke:#181818;stroke-width:0.5;stroke-dasharray:5,5;" x1="173.7776" x2="173.7776" y1="124.1358" y2="539.608"/></g><g><title>Squadre</title><rect fill="#000000" fill-opacity="0.00000" height="415.4722" width="8" x="429.1141" y="124.1358"/><line style="stroke:#181818;stroke-width:0.5;stroke-dasharray:5,5;" x1="432.5692" x2="432.5692" y1="124.1358" y2="539.608"/></g><g><title>Studenti</title><rect fill="#000000" fill-opacity="0.00000" height="415.4722" width="8" x="626.4823" y="124.1358"/><line style="stroke:#181818;stroke-width:0.5;stroke-dasharray:5,5;" x1="629.8744" x2="629.8744" y1="124.1358" y2="539.608"/></g><g class="participant participant-head" data-participant="S"><rect fill="#E2E2F0" height="33.0679" rx="2.5" ry="2.5" style="stroke:#181818;stroke-width:0.5;" width="106.7776" x="20" y="90.0679"/><text fill="#000000" font-family="sans-serif" font-size="14" lengthAdjust="spacing" textLength="92.7776" x="27" y="112.0339">Sist. Feedback</text></g><g class="participant participant-tail" data-participant="S"><rect fill="#E2E2F0" height="33.0679" rx="2.5" ry="2.5" style="stroke:#181818;stroke-width:0.5;" width="106.7776" x="20" y="538.608"/><text fill="#000000" font-family="sans-serif" font-size="14" lengthAdjust="spacing" textLength="92.7776" x="27" y="560.574">Sist. Feedback</text></g><g class="participant participant-head" data-participant="I"><text fill="#000000" font-family="sans-serif" font-size="14" lengthAdjust="spacing" textLength="69.6638" x="136.7776" y="120.0339">Formatore</text><ellipse cx="174.6095" cy="53.5679" fill="#E2E2F0" rx="8" ry="8" style="stroke:#181818;stroke-width:0.5;"/><path d="M174.6095,61.5679 L174.6095,88.5679 M161.6095,69.5679 L187.6095,69.5679 M174.6095,88.5679 L161.6095,103.5679 M174.6095,88.5679 L187.6095,103.5679" fill="none" style="stroke:#181818;stroke-width:0.5;"/></g><g class="participant participant-tail" data-participant="I"><text fill="#000000" font-family="sans-serif" font-size="14" lengthAdjust="spacing" textLength="69.6638" x="136.7776" y="553.574">Formatore</text><ellipse cx="174.6095" cy="566.1759" fill="#E2E2F0" rx="8" ry="8" style="stroke:#181818;stroke-width:0.5;"/><path d="M174.6095,574.1759 L174.6095,601.1759 M161.6095,582.1759 L187.6095,582.1759 M174.6095,601.1759 L161.6095,616.1759 M174.6095,601.1759 L187.6095,616.1759" fill="none" style="stroke:#181818;stroke-width:0.5;"/></g><g class="participant participant-head" data-participant="G"><text fill="#000000" font-family="sans-serif" font-size="14" lengthAdjust="spacing" textLength="55.0898" x="402.5692" y="120.0339">Squadre</text><ellipse cx="433.1141" cy="53.5679" fill="#E2E2F0" rx="8" ry="8" style="stroke:#181818;stroke-width:0.5;"/><path d="M433.1141,61.5679 L433.1141,88.5679 M420.1141,69.5679 L446.1141,69.5679 M433.1141,88.5679 L420.1141,103.5679 M433.1141,88.5679 L446.1141,103.5679" fill="none" style="stroke:#181818;stroke-width:0.5;"/></g><g class="participant participant-tail" data-participant="G"><text fill="#000000" font-family="sans-serif" font-size="14" lengthAdjust="spacing" textLength="55.0898" x="402.5692" y="553.574">Squadre</text><ellipse cx="433.1141" cy="566.1759" fill="#E2E2F0" rx="8" ry="8" style="stroke:#181818;stroke-width:0.5;"/><path d="M433.1141,574.1759 L433.1141,601.1759 M420.1141,582.1759 L446.1141,582.1759 M433.1141,601.1759 L420.1141,616.1759 M433.1141,601.1759 L446.1141,616.1759" fill="none" style="stroke:#181818;stroke-width:0.5;"/></g><g class="participant participant-head" data-participant="C"><text fill="#000000" font-family="sans-serif" font-size="14" lengthAdjust="spacing" textLength="55.2158" x="599.8744" y="120.0339">Studenti</text><ellipse cx="630.4823" cy="53.5679" fill="#E2E2F0" rx="8" ry="8" style="stroke:#181818;stroke-width:0.5;"/><path d="M630.4823,61.5679 L630.4823,88.5679 M617.4823,69.5679 L643.4823,69.5679 M630.4823,88.5679 L617.4823,103.5679 M630.4823,88.5679 L643.4823,103.5679" fill="none" style="stroke:#181818;stroke-width:0.5;"/></g><g class="participant participant-tail" data-participant="C"><text fill="#000000" font-family="sans-serif" font-size="14" lengthAdjust="spacing" textLength="55.2158" x="599.8744" y="553.574">Studenti</text><ellipse cx="630.4823" cy="566.1759" fill="#E2E2F0" rx="8" ry="8" style="stroke:#181818;stroke-width:0.5;"/><path d="M630.4823,574.1759 L630.4823,601.1759 M617.4823,582.1759 L643.4823,582.1759 M630.4823,601.1759 L617.4823,616.1759 M630.4823,601.1759 L643.4823,616.1759" fill="none" style="stroke:#181818;stroke-width:0.5;"/></g><g class="message" data-participant-1="S" data-participant-2="C"><polygon fill="#181818" points="618.4823,153.8419,628.4823,157.8419,618.4823,161.8419,622.4823,157.8419" style="stroke:#181818;stroke-width:1;"/><line style="stroke:#181818;stroke-width:1;" x1="73.3888" x2="624.4823" y1="157.8419" y2="157.8419"/><text fill="#000000" font-family="sans-serif" font-size="13" lengthAdjust="spacing" textLength="246.2982" x="80.3888" y="152.0328">Punteggio iniziale e formazione squadre</text></g><path d="M10,172.8419 L83.34,172.8419 L83.34,182.5479 L73.34,192.5479 L10,192.5479 L10,172.8419" fill="#EEEEEE" style="stroke:#000000;stroke-width:1.5;"/><rect fill="none" height="349.7662" style="stroke:#000000;stroke-width:1.5;" width="751.3604" x="10" y="172.8419"/><text fill="#000000" font-family="sans-serif" font-size="13" font-weight="bold" lengthAdjust="spacing" textLength="28.34" x="25" y="187.7389">loop</text><text fill="#000000" font-family="sans-serif" font-size="11" font-weight="bold" lengthAdjust="spacing" textLength="104.7962" x="98.34" y="186.6008">[Per ogni problema</text><text fill="#000000" font-family="sans-serif" font-size="11" font-style="italic" font-weight="bold" lengthAdjust="spacing" textLength="6.7099" x="205.9962" y="186.6008">P</text><text fill="#000000" font-family="sans-serif" font-size="11" font-weight="bold" lengthAdjust="spacing" textLength="3.641" x="212.7062" y="186.6008">]</text><g class="message" data-participant-1="I" data-participant-2="C"><polygon fill="#181818" points="618.4823,212.2539,628.4823,216.2539,618.4823,220.2539,622.4823,216.2539" style="stroke:#181818;stroke-width:1;"/><line style="stroke:#181818;stroke-width:1;" x1="174.6095" x2="624.4823" y1="216.2539" y2="216.2539"/><text fill="#000000" font-family="sans-serif" font-size="13" lengthAdjust="spacing" textLength="54.145" x="181.6095" y="210.4449">Presenta</text><text fill="#000000" font-family="sans-serif" font-size="13" font-style="italic" lengthAdjust="spacing" textLength="7.371" x="239.1346" y="210.4449">P</text><text fill="#000000" font-family="sans-serif" font-size="13" lengthAdjust="spacing" textLength="162.1232" x="249.8856" y="210.4449">e propone quiz individuale</text></g><g class="message" data-participant-1="C" data-participant-2="S"><polygon fill="#181818" points="84.3888,243.9599,74.3888,247.9599,84.3888,251.9599,80.3888,247.9599" style="stroke:#181818;stroke-width:1;"/><line style="stroke:#181818;stroke-width:1;" x1="78.3888" x2="629.4823" y1="247.9599" y2="247.9599"/><text fill="#000000" font-family="sans-serif" font-size="13" lengthAdjust="spacing" textLength="99.7881" x="90.3888" y="242.1509">Risponde al quiz</text></g><g class="message" data-participant-1="S" data-participant-2="C"><polygon fill="#181818" points="618.4823,275.6659,628.4823,279.6659,618.4823,283.6659,622.4823,279.6659" style="stroke:#181818;stroke-width:1;"/><line style="stroke:#181818;stroke-width:1;" x1="73.3888" x2="624.4823" y1="279.6659" y2="279.6659"/><text fill="#000000" font-family="sans-serif" font-size="13" lengthAdjust="spacing" textLength="127.6731" x="80.3888" y="273.8569">Aggiorna la classifica</text></g><g class="message" data-participant-1="C" data-participant-2="C"><line style="stroke:#181818;stroke-width:1;" x1="630.4823" x2="672.4823" y1="311.3719" y2="311.3719"/><line style="stroke:#181818;stroke-width:1;" x1="672.4823" x2="672.4823" y1="311.3719" y2="324.3719"/><line style="stroke:#181818;stroke-width:1;" x1="631.4823" x2="672.4823" y1="324.3719" y2="324.3719"/><polygon fill="#181818" points="641.4823,320.3719,631.4823,324.3719,641.4823,328.3719,637.4823,324.3719" style="stroke:#181818;stroke-width:1;"/><text fill="#000000" font-family="sans-serif" font-size="13" lengthAdjust="spacing" textLength="111.8781" x="637.4823" y="305.5629">Discute le risposte</text></g><g class="message" data-participant-1="I" data-participant-2="C"><polygon fill="#181818" points="618.4823,352.0779,628.4823,356.0779,618.4823,360.0779,622.4823,356.0779" style="stroke:#181818;stroke-width:1;"/><line style="stroke:#181818;stroke-width:1;" x1="174.6095" x2="624.4823" y1="356.0779" y2="356.0779"/><text fill="#000000" font-family="sans-serif" font-size="13" lengthAdjust="spacing" textLength="144.8461" x="181.6095" y="350.2689">Illustra la soluzione na&#239;f</text></g><g class="message" data-participant-1="I" data-participant-2="G"><polygon fill="#181818" points="421.1141,383.784,431.1141,387.784,421.1141,391.784,425.1141,387.784" style="stroke:#181818;stroke-width:1;"/><line style="stroke:#181818;stroke-width:1;" x1="174.6095" x2="427.1141" y1="387.784" y2="387.784"/><text fill="#000000" font-family="sans-serif" font-size="13" lengthAdjust="spacing" textLength="167.1411" x="181.6095" y="381.975">Propone la sfida complessa</text></g><g class="message" data-participant-1="G" data-participant-2="S"><polygon fill="#181818" points="84.3888,415.49,74.3888,419.49,84.3888,423.49,80.3888,419.49" style="stroke:#181818;stroke-width:1;"/><line style="stroke:#181818;stroke-width:1;" x1="78.3888" x2="432.1141" y1="419.49" y2="419.49"/><text fill="#000000" font-family="sans-serif" font-size="13" lengthAdjust="spacing" textLength="335.7253" x="90.3888" y="413.681">Elabora e consegna la soluzione, decide il bonus/malus</text></g><g class="message" data-participant-1="G" data-participant-2="C"><polygon fill="#181818" points="618.4823,447.196,628.4823,451.196,618.4823,455.196,622.4823,451.196" style="stroke:#181818;stroke-width:1;"/><line style="stroke:#181818;stroke-width:1;" x1="433.1141" x2="624.4823" y1="451.196" y2="451.196"/><text fill="#000000" font-family="sans-serif" font-size="13" lengthAdjust="spacing" textLength="173.3682" x="440.1141" y="445.387">Espone il processo risolutivo</text></g><g class="message" data-participant-1="S" data-participant-2="C"><polygon fill="#181818" points="618.4823,478.902,628.4823,482.902,618.4823,486.902,622.4823,482.902" style="stroke:#181818;stroke-width:1;"/><line style="stroke:#181818;stroke-width:1;" x1="73.3888" x2="624.4823" y1="482.902" y2="482.902"/><text fill="#000000" font-family="sans-serif" font-size="13" lengthAdjust="spacing" textLength="127.6731" x="80.3888" y="477.093">Aggiorna la classifica</text></g><g class="message" data-participant-1="I" data-participant-2="C"><polygon fill="#181818" points="618.4823,510.608,628.4823,514.608,618.4823,518.608,622.4823,514.608" style="stroke:#181818;stroke-width:1;"/><line style="stroke:#181818;stroke-width:1;" x1="174.6095" x2="624.4823" y1="514.608" y2="514.608"/><text fill="#000000" font-family="sans-serif" font-size="13" lengthAdjust="spacing" textLength="167.1411" x="181.6095" y="508.799">Spiega la teoria e formula il</text><text fill="#000000" font-family="sans-serif" font-size="13" font-weight="bold" lengthAdjust="spacing" textLength="52.65" x="352.1307" y="508.799">modello</text></g><!--SRC=[ZP51JiCm44NtFiMe6wGAo9u54YgqwguY9vZOqp32yGIFtKKlnI6u69EqfUgEhA8_t-__iGkNIB16PGWSi1Js7-JS7M0jakhGKNPkn6mwZvWAB5hMyWXhej2X_rm0AhGEVP4CYxNa0UsFPdbxaTklYk4iRlx4KWEbmhEwSgw5XsTOFS6kfa9zpmAS-CXezGZs4_Z8aWZq17CkYeomempI9uOnInTfG6YQNTCui6zx8MPIIpgFZ6RUSK9zLJvQIk03Xsf1ywdLTAfzWdTMCmK2ZBDn7bvAlam5SqA823wYAk_Pu_MyMLvPVIq4rZzFA2rqqseROzMIPuHAhAVj4lvyxw- -pTJ-L7QoxUs9mCimHb8znMtETTyYTc8qidbIwjCj-1u2URPjE49d3wlDW9P_HLYZDvs3p64Nv2r1fkP6A7oG_wv_MQyTcVhPK4Wou_aHgmaMi5mE4YX6MIuTfV0B]--></g></svg>
